<svg width="4248" height="4248" viewBox="0 0 4248 4248" fill="none"
    xmlns="http://www.w3.org/2000/svg">
    <rect width="4248" height="4248" rx="1031" fill="url(#paint0_linear_300_5)"/>
    <path d="M2853.25 1699.4V2549.6C2853.25 2650.17 2771.63 2731.79 2671.06 2731.79C2570.49 2731.79 2488.87 2650.17 2488.87 2549.6V1699.4C2488.87 1598.83 2570.49 1517.21 2671.06 1517.21C2771.63 1517.21 2853.25 1598.83 2853.25 1699.4ZM2063.77 667C1963.2 667 1881.58 748.62 1881.58 849.188V3399.81C1881.58 3500.38 1963.2 3582 2063.77 3582C2164.34 3582 2245.96 3500.38 2245.96 3399.81V849.188C2245.96 748.62 2164.34 667 2063.77 667ZM3278.35 1152.83C3177.79 1152.83 3096.17 1234.45 3096.17 1335.02V2913.98C3096.17 3014.55 3177.79 3096.17 3278.35 3096.17C3378.92 3096.17 3460.54 3014.55 3460.54 2913.98V1335.02C3460.54 1234.45 3378.92 1152.83 3278.35 1152.83ZM1456.48 1274.29C1355.91 1274.29 1274.29 1355.91 1274.29 1456.48V2792.52C1274.29 2893.09 1355.91 2974.71 1456.48 2974.71C1557.05 2974.71 1638.67 2893.09 1638.67 2792.52V1456.48C1638.67 1355.91 1557.05 1274.29 1456.48 1274.29ZM849.187 1760.13C748.62 1760.13 667 1841.75 667 1942.31V2306.69C667 2407.26 748.62 2488.88 849.187 2488.88C949.755 2488.88 1031.37 2407.26 1031.37 2306.69V1942.31C1031.37 1841.75 949.755 1760.13 849.187 1760.13Z" fill="white"/>
    <defs>
        <linearGradient id="paint0_linear_300_5" x1="2124" y1="0" x2="2124" y2="4248" gradientUnits="userSpaceOnUse">
            <stop stop-color="#00C8FF"/>
            <stop offset="1" stop-color="#0074C7"/>
        </linearGradient>
    </defs>
</svg>
